<svg width="17" height="14" viewBox="0 0 17 14" fill="none" xmlns="http://www.w3.org/2000/svg">
<path d="M11.0698 7.94475C11.0698 9.43346 9.85875 10.6445 8.37003 10.6445C6.88132 10.6445 5.67072 9.43346 5.67072 7.94475C5.67072 6.45604 6.88132 5.24498 8.37003 5.24498C9.85875 5.24498 11.0698 6.4565 11.0698 7.94475ZM16.7401 4.1112V11.7792C16.7401 12.8015 15.9113 13.6303 14.889 13.6303H1.85106C0.828812 13.6303 0 12.8015 0 11.7792V4.1112C0 3.08896 0.828812 2.26014 1.85106 2.26014H4.12786V1.61968C4.12786 0.725152 4.85255 0 5.74754 0H10.9925C11.8875 0 12.6122 0.725152 12.6122 1.61968V2.25968H14.889C15.9113 2.26014 16.7401 3.08896 16.7401 4.1112ZM12.4581 7.94475C12.4581 5.69062 10.6242 3.85668 8.37003 3.85668C6.11637 3.85668 4.28243 5.69062 4.28243 7.94475C4.28243 10.1989 6.11637 12.0328 8.37003 12.0328C10.6242 12.0328 12.4581 10.1989 12.4581 7.94475Z" fill="#82CD47"/>
</svg>
