<svg width="27" height="27" viewBox="0 0 27 27" fill="none" xmlns="http://www.w3.org/2000/svg">
<path d="M26.789 9.00006V13.1861C26.789 13.4635 26.6788 13.7295 26.4826 13.9257C26.2865 14.1219 26.0204 14.2321 25.743 14.2321H25.055L24.614 18.1561C24.583 18.4319 24.4436 18.6841 24.2267 18.8572C24.0097 19.0303 23.7328 19.1101 23.457 19.0791C23.1812 19.048 22.929 18.9087 22.7559 18.6917C22.5828 18.4747 22.503 18.1979 22.534 17.9221L23.079 13.0691C23.1078 12.8133 23.2297 12.5771 23.4215 12.4056C23.6134 12.234 23.8617 12.1392 24.119 12.1391H24.7V10.0461H2.092V12.1391H19.935C20.2125 12.1391 20.4787 12.2493 20.675 12.4456C20.8712 12.6418 20.9815 12.908 20.9815 13.1856C20.9815 13.4631 20.8712 13.7293 20.675 13.9255C20.4787 14.1218 20.2125 14.2321 19.935 14.2321H3.86L4.893 22.8531C4.95344 23.3618 5.1983 23.8308 5.58125 24.1712C5.9642 24.5116 6.45865 24.6997 6.971 24.7001H19.9C20.4147 24.7005 20.9115 24.5111 21.2953 24.1681C21.6791 23.8251 21.9229 23.3526 21.98 22.8411C22.011 22.5652 22.1504 22.313 22.3673 22.1399C22.5843 21.9668 22.8612 21.887 23.137 21.9181C23.4128 21.9491 23.665 22.0884 23.8381 22.3054C24.0112 22.5224 24.091 22.7992 24.06 23.0751C23.9449 24.0975 23.457 25.0417 22.6895 25.727C21.9221 26.4124 20.9289 26.7909 19.9 26.7901H6.971C5.94697 26.7893 4.95869 26.4134 4.19293 25.7335C3.42717 25.0536 2.93698 24.1168 2.815 23.1001L1.752 14.2301H1.046C0.76893 14.2301 0.503179 14.1201 0.307073 13.9244C0.110967 13.7287 0.000530249 13.4631 4.78055e-07 13.1861V9.00006C-0.000130924 8.86261 0.0268277 8.72649 0.0793353 8.59946C0.131843 8.47244 0.20887 8.35701 0.306013 8.25978C0.403156 8.16254 0.518511 8.0854 0.645483 8.03277C0.772454 7.98015 0.908554 7.95306 1.046 7.95306H4.758L10.288 0.427057C10.4523 0.203347 10.6987 0.054068 10.9731 0.0120598C11.2475 -0.0299483 11.5273 0.0387554 11.751 0.203057C11.9747 0.367359 12.124 0.613799 12.166 0.888165C12.208 1.16253 12.1393 1.44235 11.975 1.66606L7.355 7.95306H19.473L14.853 1.66606C14.6983 1.4419 14.6369 1.16627 14.6821 0.897653C14.7273 0.629039 14.8753 0.388596 15.0949 0.227361C15.3144 0.0661263 15.5881 -0.00320745 15.8579 0.034077C16.1278 0.0713615 16.3724 0.212329 16.54 0.427057L22.07 7.95306H25.743C26.0205 7.95332 26.2866 8.06375 26.4827 8.26007C26.6788 8.45639 26.789 8.72255 26.789 9.00006ZM12.348 17.3721V21.5581C12.348 21.8356 12.4583 22.1018 12.6545 22.298C12.8508 22.4943 13.117 22.6046 13.3945 22.6046C13.672 22.6046 13.9382 22.4943 14.1345 22.298C14.3307 22.1018 14.441 21.8356 14.441 21.5581V17.3721C14.441 17.0945 14.3307 16.8283 14.1345 16.6321C13.9382 16.4358 13.672 16.3256 13.3945 16.3256C13.117 16.3256 12.8508 16.4358 12.6545 16.6321C12.4583 16.8283 12.348 17.0945 12.348 17.3721ZM16.534 17.3721V21.5581C16.534 21.8356 16.6443 22.1018 16.8405 22.298C17.0368 22.4943 17.3029 22.6046 17.5805 22.6046C17.858 22.6046 18.1242 22.4943 18.3205 22.298C18.5167 22.1018 18.627 21.8356 18.627 21.5581V17.3721C18.627 17.0945 18.5167 16.8283 18.3205 16.6321C18.1242 16.4358 17.858 16.3256 17.5805 16.3256C17.3029 16.3256 17.0368 16.4358 16.8405 16.6321C16.6443 16.8283 16.534 17.0945 16.534 17.3721ZM8.162 17.3721V21.5581C8.162 21.8356 8.27226 22.1018 8.46851 22.298C8.66477 22.4943 8.93095 22.6046 9.2085 22.6046C9.48605 22.6046 9.75223 22.4943 9.94849 22.298C10.1447 22.1018 10.255 21.8356 10.255 21.5581V17.3721C10.255 17.0945 10.1447 16.8283 9.94849 16.6321C9.75223 16.4358 9.48605 16.3256 9.2085 16.3256C8.93095 16.3256 8.66477 16.4358 8.46851 16.6321C8.27226 16.8283 8.162 17.0945 8.162 17.3721Z" fill="white"/>
</svg>
