<svg width="106" height="87" viewBox="0 0 106 87" fill="none" xmlns="http://www.w3.org/2000/svg">
<circle cx="72.4274" cy="52.5729" r="33.5719" fill="#DEFFE4"/>
<path d="M92.1551 29.8292L83.8232 22.8707L89.4461 13.351C89.6425 13.019 89.6732 12.6149 89.5293 12.257C89.3855 11.8999 89.0842 11.6293 88.7125 11.525L47.7466 0.0471731C47.2077 -0.10708 46.63 0.126275 46.3439 0.611106L40.927 9.7807L32.9068 3.08332C32.4826 2.73032 31.8783 2.69876 31.4218 3.00422L1.31673 23.1207C0.991182 23.3381 0.787601 23.696 0.766435 24.0863C0.745449 24.4766 0.910287 24.8547 1.21001 25.1051L9.5416 32.064L3.91917 41.5833C3.72688 41.9082 3.69298 42.3031 3.82787 42.6563C3.96203 43.0093 4.25046 43.2816 4.61081 43.3964L9.90607 45.0844V70.5396C9.90607 71.0801 10.2558 71.5577 10.7706 71.7216L52.971 85.1742C53.0938 85.2138 53.2214 85.2332 53.3475 85.2332C53.6165 85.2332 53.8823 85.1451 54.1013 84.9779L82.9721 62.886C83.2791 62.6509 83.4592 62.2866 83.4592 61.9004V38.3892L92.1133 31.7673C92.413 31.5379 92.5924 31.1847 92.6005 30.8082C92.6084 30.431 92.4442 30.0707 92.1551 29.8293V29.8292ZM53.1073 43.86L42.4933 40.4764V13.3063L79.4905 23.6719L53.1073 43.86ZM40.0112 39.6856L13.9782 31.387L40.0112 13.9915V39.6856ZM47.9955 2.69391L86.4882 13.4792L81.6356 21.6953L43.1417 10.9103L47.9955 2.69391ZM32.0286 5.58405L39.1839 11.5595L11.2296 30.2393L4.07414 24.2633L32.0286 5.58405ZM11.7118 33.2688L51.4869 45.9482L46.6219 54.184L6.84787 41.5049L11.7118 33.2688ZM12.3882 45.8756L46.811 56.8489C46.9355 56.8892 47.0623 56.9079 47.1875 56.9079C47.6172 56.9079 48.0278 56.6841 48.2556 56.2979L52.1062 49.7784V82.2937L12.3881 69.6331L12.3882 45.8756ZM80.977 61.287L54.5883 81.4796V47.8936L61.6918 53.8262C61.9221 54.0178 62.2048 54.1146 62.4876 54.1146C62.7535 54.1146 63.0184 54.0298 63.2415 53.8594L80.977 40.2885V61.287ZM62.5217 51.2853L55.3338 45.2817L82.1839 24.7359L89.3726 30.7397L62.5217 51.2853Z" fill="#6d973a"/>
</svg>
