<svg width="121" height="83" viewBox="0 0 121 83" fill="none" xmlns="http://www.w3.org/2000/svg">
<circle cx="83.0911" cy="41.2884" r="37.4124" fill="#DEFFE4"/>
<path d="M87.218 8.34946C81.8338 2.9653 74.6751 0 67.0606 0C60.0475 0 53.421 2.5156 48.2115 7.11949C43.0019 2.5156 36.3752 0 29.3623 0C21.7478 0 14.5893 2.9653 9.20492 8.34946C3.82058 13.7336 0.855469 20.8923 0.855469 28.5068C0.855469 36.1213 3.82058 43.2799 9.20492 48.6642L39.197 78.6561C41.6826 81.1415 44.9463 82.3841 48.2111 82.3839C51.4751 82.3837 54.7401 81.141 57.225 78.6563L69.1739 66.7077C69.8962 65.9854 69.8962 64.8141 69.1739 64.0917C68.4515 63.3693 67.2806 63.3693 66.5576 64.0917L54.6088 76.0402C51.0811 79.5681 45.3407 79.5679 41.813 76.0402L11.821 46.048C7.1355 41.3625 4.55516 35.133 4.55516 28.5068C4.55516 21.8807 7.13551 15.651 11.821 10.9657C16.5063 6.28022 22.736 3.69987 29.3621 3.69987C35.9883 3.69987 42.2178 6.28022 46.9033 10.9657C47.2503 11.3125 47.7207 11.5075 48.2113 11.5075C48.7019 11.5075 49.1723 11.3125 49.5193 10.9657C54.2046 6.28022 60.4343 3.69987 67.0604 3.69987C73.6866 3.69987 79.9163 6.28022 84.6016 10.9657C89.2874 15.651 91.8678 21.8805 91.8678 28.5068C91.8678 35.1331 89.2874 41.3627 84.602 46.048L78.3302 52.3195C77.6079 53.0418 77.6079 54.2132 78.3302 54.9355C79.0528 55.6581 80.2237 55.6581 80.9465 54.9355L87.2182 48.664C92.6023 43.2799 95.5675 36.1211 95.5675 28.5068C95.5675 20.8925 92.6023 13.7336 87.218 8.34946H87.218Z" fill="#82CD47"/>
<path d="M70.9297 12.6396C66.2493 12.6396 62.4414 16.4474 62.4414 21.128C62.4414 25.8087 66.2493 29.6164 70.9297 29.6164C75.6102 29.6164 79.4182 25.8087 79.4182 21.128C79.4182 16.4474 75.6102 12.6396 70.9297 12.6396ZM70.9297 25.9165C68.2893 25.9165 66.1411 23.7683 66.1411 21.1278C66.1411 18.4874 68.2891 16.3391 70.9297 16.3391C73.5704 16.3391 75.7184 18.4874 75.7184 21.1278C75.7184 23.7683 73.5704 25.9165 70.9297 25.9165Z" fill="#82CD47"/>
<circle cx="73.7522" cy="59.5139" r="1.84984" fill="#82CD47"/>
</svg>
