<svg width="14" height="12" viewBox="0 0 14 12" fill="none" xmlns="http://www.w3.org/2000/svg">
<path d="M9.75279 1C9.07075 1 8.44545 1.20053 7.89428 1.59603C7.36587 1.9752 7.01406 2.45815 6.80694 2.80933C6.59982 2.45813 6.24802 1.9752 5.7196 1.59603C5.16844 1.20053 4.54313 1 3.86109 1C1.95778 1 0.522461 2.44446 0.522461 4.35995C0.522461 6.42935 2.31312 7.84521 5.02394 9.98861C5.48428 10.3526 6.00606 10.7652 6.54839 11.2052C6.61988 11.2633 6.71169 11.2953 6.80694 11.2953C6.90219 11.2953 6.994 11.2633 7.06549 11.2052C7.60787 10.7652 8.12963 10.3526 8.59024 9.98838C11.3008 7.84521 13.0914 6.42935 13.0914 4.35995C13.0914 2.44446 11.6561 1 9.75279 1Z" stroke="#2C3066"/>
</svg>
