<svg width="78" height="91" viewBox="0 0 78 91" fill="none" xmlns="http://www.w3.org/2000/svg">
<path d="M36.6826 23.3674C38.3324 23.5091 39.9137 24.0923 41.2604 25.0559C42.4554 24.1917 43.8405 23.627 45.2992 23.4093L47.0731 8.34156C43.8783 7.26451 40.3646 7.73035 37.5608 9.60269C34.757 11.475 32.9803 14.542 32.751 17.9057C34.5572 19.3125 35.9218 21.2081 36.6826 23.3674L36.6826 23.3674Z" fill="#6d973a"/>
<path d="M43.5906 4.66023C44.9888 4.66228 46.3787 4.87542 47.7133 5.29246C47.8947 4.752 48.1143 4.22511 48.3703 3.71578L47.5704 1.32202L46.2422 2.65171C45.7698 3.12463 45.0477 3.24226 44.4496 2.94375L41.8896 1.66377L43.0997 4.68509C43.2644 4.67888 43.4244 4.66024 43.5906 4.66024L43.5906 4.66023Z" fill="#6d973a"/>
<path d="M12.6074 1C12.6074 0.447715 13.0551 0 13.6074 0H26.6074C27.1597 0 27.6074 0.447715 27.6074 1V5C27.6074 5.55228 27.1597 6 26.6074 6H13.6074C13.0551 6 12.6074 5.55228 12.6074 5V1Z" fill="#6d973a"/>
<path d="M54.8047 28.0541C55.2062 27.9928 55.6118 27.9617 56.0179 27.9609C58.9813 27.9678 61.7633 29.3894 63.5052 31.7869L68.3983 11.4035C69.1932 8.06671 68.0754 4.56414 65.4946 2.30465C62.9138 0.0451624 59.2943 -0.599864 56.0918 0.62903C52.8894 1.85793 50.6305 4.75875 50.2238 8.16466L48.4219 23.4794C51.1255 23.9756 53.4662 25.6533 54.8047 28.0541V28.0541ZM54.7193 7.78875L64.0396 9.34213L63.5301 12.4054L54.2098 10.852L54.7193 7.78875ZM53.1659 15.5556L62.4862 17.109L61.9767 20.1723L52.6564 18.6189L53.1659 15.5556Z" fill="#6d973a"/>
<path d="M63.7846 38.8345C62.9266 38.8345 62.2312 38.139 62.2312 37.2811C62.2312 33.8495 59.4493 31.0676 56.0177 31.0676C55.4516 31.0776 54.8896 31.166 54.3478 31.3301C53.5793 31.5442 52.7736 31.1413 52.4837 30.3981C51.7409 28.4411 50.0592 26.9923 48.0138 26.5472C45.9685 26.1021 43.8368 26.721 42.3479 28.1923C41.7439 28.7844 40.7772 28.7844 40.1732 28.1923C39.3836 27.4228 38.4027 26.8785 37.332 26.6156C37.346 26.8595 37.3771 27.1018 37.3771 27.3473V39.1716C37.9522 39.395 38.4794 39.7261 38.9305 40.1471C39.8217 39.3064 40.9999 38.837 42.2252 38.8345C43.5103 38.838 44.7422 39.3481 45.6535 40.2543L48.8938 43.4946H69.7775C69.0713 40.7596 66.6092 38.8451 63.7845 38.8345L63.7846 38.8345Z" fill="#6d973a"/>
<path d="M58.2135 52.8148H74.6576C76.3734 52.8148 77.7644 51.4239 77.7644 49.7081C77.7644 47.9923 76.3734 46.6013 74.6576 46.6013H52L58.2135 52.8148Z" fill="#6d973a"/>
<path d="M44.5012 52.8148L38.9308 47.2444L33.3604 52.8148H44.5012Z" fill="#6d973a"/>
<path d="M72.8977 55.9216H61.3203L71.6115 66.2128L72.8977 55.9216Z" fill="#6d973a"/>
<path d="M9.41633 29.5143C9.41633 28.6563 10.1118 27.9609 10.9697 27.9609H29.6103C30.4682 27.9609 31.1637 28.6563 31.1637 29.5143V41.2982L32.2075 40.2543C32.7847 39.6895 33.4938 39.2779 34.2704 39.0567L34.2704 27.3473C34.2737 24.3669 32.7835 21.5831 30.3015 19.933C26.9575 17.7085 24.9487 13.958 24.9501 9.94167V9.32031H15.6299V9.94166C15.6338 13.9607 13.6247 17.7147 10.2785 19.9408C7.79878 21.5893 6.3089 24.3696 6.30957 27.3473V43.4947H9.41633V29.5143Z" fill="#6d973a"/>
<path d="M16.5402 55.9216H4.96289L6.24909 66.2128L16.5402 55.9216Z" fill="#6d973a"/>
<path d="M59.1241 82.3291C59.1241 84.9028 57.0377 86.9892 54.464 86.9892C51.8902 86.9892 49.8038 84.9028 49.8038 82.3291V63.6885C49.8075 62.229 50.4981 60.8565 51.6679 59.9837L47.6073 55.9216H30.253L26.1924 59.9837C27.3622 60.8565 28.0528 62.229 28.0565 63.6885V82.3291C28.0565 84.9028 25.9701 86.9892 23.3964 86.9892C20.8226 86.9892 18.7362 84.9028 18.7362 82.3291V67.4384L7.77246 78.4021L8.72468 86.0137C9.01606 88.3454 10.9978 90.0953 13.3475 90.096H64.5128C66.8626 90.0953 68.8443 88.3454 69.1356 86.0137L70.0879 78.4021L59.1241 67.4384L59.1241 82.3291ZM43.5903 82.3291C43.5903 84.9028 41.5039 86.9892 38.9302 86.9892C36.3564 86.9892 34.27 84.9028 34.27 82.3291V63.6885C34.27 61.1148 36.3564 59.0284 38.9302 59.0284C41.5039 59.0284 43.5903 61.1148 43.5903 63.6885V82.3291Z" fill="#6d973a"/>
<path d="M56.0179 82.3291V64.3316L53.9302 62.2439C53.3211 62.4641 52.9142 63.041 52.9111 63.6885V82.3291C52.9111 83.187 53.6066 83.8825 54.4645 83.8825C55.3224 83.8825 56.0179 83.187 56.0179 82.3291Z" fill="#6d973a"/>
<path d="M43.4566 42.4508C42.9585 41.9523 42.2092 41.8031 41.5582 42.0728C40.9073 42.3426 40.483 42.978 40.4834 43.6826C40.4816 44.1449 40.6651 44.5885 40.9929 44.9144L74.7914 78.7129C75.2894 79.2113 76.0387 79.3605 76.6897 79.0908C77.3407 78.8211 77.765 78.1857 77.7645 77.4811C77.7664 77.0188 77.5828 76.5751 77.255 76.2492L43.4566 42.4508Z" fill="#6d973a"/>
<path d="M12.5225 31.0676H28.0563V43.4947H12.5225V31.0676Z" fill="#6d973a"/>
<path d="M38.9303 62.1353C38.0724 62.1353 37.377 62.8307 37.377 63.6886V82.3292C37.377 83.1871 38.0724 83.8826 38.9303 83.8826C39.7882 83.8826 40.4837 83.1871 40.4837 82.3292V63.6886C40.4837 62.8307 39.7882 62.1353 38.9303 62.1353Z" fill="#6d973a"/>
<path d="M21.8428 64.3316V82.3291C21.8428 83.187 22.5382 83.8825 23.3962 83.8825C24.2541 83.8825 24.9495 83.187 24.9495 82.3291V63.6885C24.9464 63.0409 24.5395 62.4641 23.9305 62.2439L21.8428 64.3316Z" fill="#6d973a"/>
<path d="M37.3769 43.6826C37.3774 42.978 36.9531 42.3425 36.3021 42.0728C35.6512 41.8031 34.9018 41.9523 34.4038 42.4508L0.605331 76.2492C0.106869 76.7473 -0.0423201 77.4966 0.227386 78.1476C0.497093 78.7986 1.13253 79.2228 1.83716 79.2224C2.2987 79.2207 2.74107 79.0377 3.06899 78.7129L36.8674 44.9144C37.1953 44.5885 37.3788 44.1449 37.3769 43.6826L37.3769 43.6826Z" fill="#6d973a"/>
<path d="M3.20246 52.8148H19.6465L25.8601 46.6013H3.20246C1.48665 46.6013 0.0957031 47.9923 0.0957031 49.7081C0.0957031 51.4239 1.48665 52.8148 3.20246 52.8148Z" fill="#6d973a"/>
</svg>
