<svg width="16" height="21" viewBox="0 0 16 21" fill="none" xmlns="http://www.w3.org/2000/svg">
<path d="M7.60075 20C7.41395 19.9785 7.24156 19.8891 7.11642 19.7488C6.99128 19.6085 6.92212 19.427 6.92212 19.239C6.92212 19.051 6.99128 18.8695 7.11642 18.7292C7.24156 18.5888 7.41395 18.4994 7.60075 18.478C8.39575 18.487 9.20074 18.46 10.0007 18.39C10.7122 18.3428 11.4192 18.2425 12.1157 18.09C13.3157 17.825 14.0647 17.447 14.3007 16.946C14.3914 16.7565 14.4384 16.5491 14.4384 16.339C14.4384 16.1289 14.3914 15.9215 14.3007 15.732C14.0647 15.222 13.3137 14.826 12.1417 14.588C11.4348 14.428 10.7162 14.3247 9.99274 14.279C8.64084 14.1566 7.28065 14.1566 5.92875 14.279C5.21424 14.3257 4.50425 14.426 3.80474 14.579C2.60474 14.843 1.86475 15.222 1.61975 15.723C1.53285 15.9135 1.48816 16.1206 1.48875 16.33C1.48819 16.5426 1.53284 16.7529 1.61975 16.947C1.8251 17.2294 2.08633 17.4666 2.38721 17.6437C2.68809 17.8209 3.02218 17.9344 3.36875 17.977C3.50524 18.0044 3.63163 18.0687 3.73422 18.1628C3.83681 18.2569 3.91169 18.3773 3.95075 18.511C3.98997 18.645 3.99208 18.7871 3.95686 18.9222C3.92163 19.0572 3.8504 19.1802 3.75075 19.278C3.65127 19.3751 3.52701 19.4429 3.39156 19.4742C3.25611 19.5054 3.11468 19.4987 2.98275 19.455C2.425 19.363 1.89421 19.1498 1.42773 18.8305C0.961245 18.5112 0.570414 18.0936 0.282745 17.607C0.0965545 17.2122 0 16.781 0 16.3445C0 15.908 0.0965545 15.4768 0.282745 15.082C0.745745 14.087 1.82875 13.446 3.49874 13.102C4.28459 12.9311 5.08217 12.8194 5.88475 12.768C7.32144 12.6447 8.76605 12.6447 10.2027 12.768C10.9882 12.8206 11.7684 12.9352 12.5357 13.111C14.1967 13.446 15.2807 14.106 15.7357 15.073C15.9148 15.4706 16.0052 15.9023 16.0007 16.3384C15.9962 16.7744 15.897 17.2042 15.7097 17.598C15.2457 18.566 14.1627 19.226 12.4747 19.569C11.7098 19.7417 10.9324 19.8537 10.1497 19.904C9.392 19.9817 8.63038 20.0151 7.86875 20.004L7.60075 20ZM8.00074 10.717H7.99075C6.75616 10.7056 5.56329 10.2687 4.61343 9.47997C3.66357 8.69123 3.01488 7.59898 2.77682 6.38751C2.53875 5.17604 2.72589 3.91953 3.30666 2.83002C3.88743 1.7405 4.82627 0.884689 5.96475 0.406989C6.9379 0.00272706 8.00946 -0.102264 9.04257 0.105426C10.0757 0.313116 11.0234 0.82406 11.7647 1.57299C12.5114 2.32487 13.0189 3.28093 13.2232 4.32072C13.4275 5.3605 13.3195 6.43749 12.9127 7.41599C12.5146 8.39194 11.8347 9.22716 10.9598 9.81509C10.085 10.403 9.0548 10.717 8.00074 10.717ZM5.30075 2.64899C4.85768 3.09593 4.53081 3.64456 4.34869 4.24697C4.16657 4.84937 4.13474 5.48721 4.25598 6.10475C4.37721 6.72229 4.64784 7.30075 5.0442 7.78958C5.44056 8.27841 5.95059 8.66274 6.52975 8.90899C7.22592 9.20116 7.99353 9.27863 8.73404 9.13145C9.47456 8.98427 10.1542 8.61917 10.6857 8.08299C11.2216 7.54601 11.5864 6.86233 11.7341 6.11823C11.8819 5.37413 11.8059 4.60294 11.5157 3.90199C11.2311 3.20067 10.7435 2.60032 10.1155 2.17789C9.48749 1.75547 8.74762 1.53021 7.99075 1.53099H7.98475C7.48563 1.5304 6.99137 1.62892 6.53063 1.82083C6.06989 2.01275 5.65185 2.29425 5.30075 2.64899Z" fill="#777777"/>
</svg>
