<svg width="20" height="20" viewBox="0 0 20 20" fill="none" xmlns="http://www.w3.org/2000/svg">
<path d="M20 6.71895V9.84399C20 10.0511 19.9177 10.2497 19.7713 10.3962C19.6248 10.5426 19.4262 10.6249 19.2191 10.6249H18.7054L18.3762 13.5543C18.353 13.7602 18.249 13.9485 18.087 14.0777C17.925 14.207 17.7183 14.2666 17.5124 14.2434C17.3065 14.2202 17.1182 14.1162 16.989 13.9542C16.8597 13.7922 16.8002 13.5855 16.8233 13.3796L17.2302 9.75665C17.2517 9.56573 17.3427 9.3894 17.4859 9.26134C17.6291 9.13327 17.8145 9.06244 18.0066 9.06236H18.4404V7.49984H1.56184V9.06236H14.883C15.0902 9.06236 15.2889 9.14467 15.4354 9.29118C15.582 9.4377 15.6643 9.63642 15.6643 9.84362C15.6643 10.0508 15.582 10.2495 15.4354 10.3961C15.2889 10.5426 15.0902 10.6249 14.883 10.6249H2.88178L3.65299 17.0608C3.69811 17.4407 3.88092 17.7908 4.16682 18.0449C4.45272 18.299 4.82187 18.4395 5.20438 18.4397H14.8568C15.2411 18.4401 15.612 18.2987 15.8986 18.0426C16.1851 17.7865 16.3671 17.4338 16.4097 17.0519C16.4329 16.846 16.5369 16.6577 16.6989 16.5285C16.8609 16.3992 17.0676 16.3397 17.2735 16.3628C17.4794 16.386 17.6677 16.49 17.797 16.652C17.9262 16.814 17.9858 17.0207 17.9626 17.2266C17.8767 17.9899 17.5124 18.6948 16.9394 19.2064C16.3665 19.7181 15.625 20.0006 14.8568 20H5.20438C4.43986 19.9994 3.70203 19.7188 3.13034 19.2113C2.55864 18.7037 2.19268 18.0043 2.10161 17.2452L1.308 10.6234H0.780918C0.574064 10.6234 0.375661 10.5413 0.229253 10.3952C0.0828455 10.2491 0.000395871 10.0508 3.56904e-07 9.84399V6.71895C-9.77448e-05 6.61634 0.0200289 6.51472 0.0592297 6.41989C0.0984306 6.32506 0.155937 6.23889 0.228462 6.1663C0.300986 6.09371 0.387107 6.03612 0.481901 5.99683C0.576695 5.95754 0.678304 5.93732 0.780918 5.93732H3.5522L7.68077 0.318818C7.80343 0.151808 7.98742 0.0403642 8.19225 0.00900322C8.39709 -0.0223578 8.60599 0.0289327 8.77301 0.151591C8.94002 0.27425 9.05147 0.458229 9.08283 0.663056C9.11419 0.867882 9.0629 1.07678 8.94024 1.24379L5.49106 5.93732H14.5381L11.0889 1.24379C10.9733 1.07645 10.9276 0.870671 10.9613 0.670139C10.995 0.469606 11.1055 0.290105 11.2694 0.169736C11.4333 0.0493663 11.6377 -0.00239451 11.8391 0.02544C12.0406 0.0532746 12.2232 0.158513 12.3484 0.318818L16.4769 5.93732H19.2191C19.4263 5.93752 19.6249 6.01995 19.7713 6.16652C19.9178 6.31308 20 6.51178 20 6.71895ZM9.21871 12.969V16.0941C9.21871 16.3013 9.30102 16.5 9.44754 16.6465C9.59406 16.793 9.79279 16.8753 10 16.8753C10.2072 16.8753 10.4059 16.793 10.5525 16.6465C10.699 16.5 10.7813 16.3013 10.7813 16.0941V12.969C10.7813 12.7618 10.699 12.5631 10.5525 12.4166C10.4059 12.2701 10.2072 12.1878 10 12.1878C9.79279 12.1878 9.59406 12.2701 9.44754 12.4166C9.30102 12.5631 9.21871 12.7618 9.21871 12.969ZM12.3439 12.969V16.0941C12.3439 16.3013 12.4262 16.5 12.5727 16.6465C12.7192 16.793 12.918 16.8753 13.1252 16.8753C13.3324 16.8753 13.5311 16.793 13.6776 16.6465C13.8241 16.5 13.9065 16.3013 13.9065 16.0941V12.969C13.9065 12.7618 13.8241 12.5631 13.6776 12.4166C13.5311 12.2701 13.3324 12.1878 13.1252 12.1878C12.918 12.1878 12.7192 12.2701 12.5727 12.4166C12.4262 12.5631 12.3439 12.7618 12.3439 12.969ZM6.09355 12.969V16.0941C6.09355 16.3013 6.17586 16.5 6.32238 16.6465C6.4689 16.793 6.66763 16.8753 6.87484 16.8753C7.08205 16.8753 7.28077 16.793 7.42729 16.6465C7.57381 16.5 7.65613 16.3013 7.65613 16.0941V12.969C7.65613 12.7618 7.57381 12.5631 7.42729 12.4166C7.28077 12.2701 7.08205 12.1878 6.87484 12.1878C6.66763 12.1878 6.4689 12.2701 6.32238 12.4166C6.17586 12.5631 6.09355 12.7618 6.09355 12.969Z" fill="#2C3066"/>
</svg>
