<svg width="12" height="11" viewBox="0 0 12 11" fill="none" xmlns="http://www.w3.org/2000/svg">
<path d="M11.3134 4.48415C11.244 4.28486 11.0534 4.14331 10.828 4.12447L7.7664 3.86653L6.55573 1.23733C6.46646 1.04465 6.26316 0.919922 6.03728 0.919922C5.8114 0.919922 5.6081 1.04465 5.51883 1.23779L4.30817 3.86652L1.24602 4.12446C1.02103 4.14375 0.830999 4.28485 0.761157 4.48414C0.691312 4.68344 0.755815 4.90203 0.926015 5.03982L3.24026 6.92297L2.55784 9.7121C2.50791 9.91718 2.5937 10.1292 2.77709 10.2522C2.87566 10.3182 2.99099 10.3519 3.10729 10.3519C3.20757 10.3519 3.30703 10.3268 3.3963 10.2772L6.03728 8.81273L8.67729 10.2772C8.87047 10.3851 9.114 10.3752 9.29699 10.2522C9.48046 10.1288 9.56617 9.91673 9.51623 9.7121L8.83381 6.92297L11.1481 5.0402C11.3183 4.90203 11.3832 4.68382 11.3134 4.48415Z" fill="#FFC107"/>
</svg>
